<svg xmlns="http://www.w3.org/2000/svg" viewBox="0 0 128 128"><path fill="#fff" d="M86.479,77.331c11.531-2.032,22.588,6.02,24.697,17.985c2.109,11.966-5.528,23.313-17.059,25.346 c-11.53,2.032-22.588-6.02-24.697-17.985C67.311,90.711,74.948,79.363,86.479,77.331"/><path fill="#d9d9d9" d="M95.1,87.6c-1,0-2,0.5-2.6,1.4l-9.6,16.4c-1,1.399-0.601,3.399,0.8,4.399 c0.5,0.4,1.2,0.601,1.8,0.601c1,0,2-0.5,2.6-1.4L97.7,92.6c1-1.399,0.6-3.399-0.8-4.399C96.4,87.8,95.7,87.6,95.1,87.6"/><path fill="#454b54" d="M90.5,124c-11.8,0-22-8.7-24.1-20.8C64,89.7,72.8,76.7,85.9,74.4c1.4-0.2,2.7-0.4,4.1-0.4 c11.8,0,22,8.7,24.1,20.8c1.2,6.6-0.2,13.2-3.9,18.6c-3.7,5.5-9.2,9.1-15.6,10.2C93.3,123.9,91.9,124,90.5,124z M90,80 c-1,0-2,0.1-3.1,0.3C77,82,70.4,91.9,72.3,102.2c1.6,9.2,9.3,15.8,18.2,15.8c1,0,2-0.1,3.1-0.3c4.8-0.8,8.9-3.6,11.7-7.7 c2.8-4.1,3.8-9.2,3-14.2C106.6,86.7,99,80,90,80z"/><path fill="#fff" d="M16.2,95.6l23.4-40.7c4.6-8,14.7-10.7,22.7-6.1l0.1,0.1c7.9,4.6,10.7,14.8,6.1,22.7l-23.4,40.7 c-4.6,8-14.7,10.7-22.7,6.101l-0.1-0.101C14.4,113.7,11.7,103.5,16.2,95.6"/><path fill="#98bed8" d="M45.2,112.2L56.9,92L28,75.3L16.3,95.5c-4.6,8-1.9,18.2,6.1,22.8C30.4,123,40.6,120.2,45.2,112.2"/><path fill="#fff" d="M46.868,56.018c-1.083,0-2.127,0.535-2.668,1.482L32.394,77.839l5.273,3.047L49.5,60.5 c0.8-1.4,0.3-3.3-1.1-4.1C47.914,56.141,47.387,56.018,46.868,56.018"/><path fill="#eaf2f7" d="M32.394,77.839L20.4,98.5c-0.8,1.4-0.3,3.3,1.1,4.1c0.5,0.301,1,0.4,1.5,0.4c1.1,0,2.2-0.5,2.7-1.5 l11.966-20.614L32.394,77.839"/><path fill="#454b54" d="M30.8,124c-3.4,0-6.8-0.9-9.8-2.6l-0.1-0.1c-9.4-5.4-12.6-17.4-7.2-26.8l23.4-40.7 c3.5-6.1,10-9.8,17-9.8c3.4,0,6.8,0.9,9.8,2.6l0.1,0.1c9.4,5.4,12.6,17.4,7.2,26.8l-23.4,40.7C44.2,120.3,37.7,124,30.8,124z M54.1,50c-4.9,0-9.4,2.6-11.8,6.8L18.8,97.5c-3.8,6.5-1.5,14.9,5,18.6l0.1,0.1c2.1,1.2,4.4,1.8,6.8,1.8c4.9,0,9.4-2.6,11.8-6.8 L66,70.5c3.8-6.5,1.5-14.9-5-18.6l-0.1-0.1C58.8,50.6,56.4,50,54.1,50z"/></svg>