<svg xmlns="http://www.w3.org/2000/svg" viewBox="0 0 128 128"><path fill="#FFF" d="M99.8,83.9l-1.4-0.1L84.6,40.5c-3.5-11-14.5-17.7-25.8-16l0,0C47.4,26.3,39,36.1,39,47.6l0.1,45.5l-1.3,0.5c-5.1,2.2-8,4.4-7.8,6.2c0.7,4.4,18.9,5.1,40.8,1.7s39-9.7,38.3-14.1C108.8,85.6,105.3,84.4,99.8,83.9z"/><path fill="#FFF" d="M51.4,74.6L49.1,48c-0.2-2.3-0.2-4.6,0.3-6.8c1.6-7.7,7-14.1,14.4-17c-1.7-0.1-3.3,0-5,0.2C47.4,26.3,39,36.1,39,47.6l0.1,45.5l-1.3,0.5l0,0C46.4,91.5,52.2,83.4,51.4,74.6z"/><path fill="#C9BC58" d="M69.6 85.6A40 8 0 1 0 69.6 101.6A40 8 0 1 0 69.6 85.6Z" transform="rotate(-8.899 69.56 93.654)"/><path fill="#E9DE87" d="M108.5 86.4c.1.1.1.1.2.2C108.6 86.5 108.6 86.5 108.5 86.4zM108.8 86.7c.1.1.1.2.1.2C108.9 86.9 108.8 86.8 108.8 86.7zM105 84.7c.1 0 .1 0 .2.1C105.1 84.8 105 84.8 105 84.7zM107.7 85.8c.1.1.2.1.2.2C107.9 85.9 107.8 85.8 107.7 85.8zM108.1 86.1c.1.1.1.1.2.2C108.3 86.2 108.2 86.1 108.1 86.1zM105.7 84.9c.1 0 .1 0 .2.1C105.8 85 105.8 85 105.7 84.9zM109 87.1c0 .1.1.2.1.4C109.1 87.3 109 87.2 109 87.1zM107.3 85.6c.1 0 .1.1.2.1C107.4 85.6 107.3 85.6 107.3 85.6zM99.8 83.9L99.8 83.9 99.8 83.9zM98.4 83.8L84.6 40.5C81.4 30.5 72.1 24.1 62 24.2c6.6 9.1 8.7 9.3 13.6 34 2.7 13.3 4.3 21 5.1 25.9C87.6 83.6 93.6 83.5 98.4 83.8zM98.4 94.9c-4.2 1.5-9.5 3.1-15.4 4.4C85.4 102.9 91.2 99.3 98.4 94.9zM104.3 84.6c0 0 .1 0 .1 0C104.3 84.6 104.3 84.6 104.3 84.6zM106.4 85.2c.1 0 .1 0 .2.1C106.5 85.2 106.4 85.2 106.4 85.2zM105.9 85c.2.1.3.1.5.2C106.2 85.1 106.1 85.1 105.9 85zM104.4 84.6c.2 0 .4.1.6.2C104.8 84.7 104.6 84.6 104.4 84.6zM99.8 83.9c1.7.2 3.2.4 4.5.7C103 84.3 101.5 84.1 99.8 83.9zM105.2 84.8c.2 0 .4.1.5.2C105.5 84.9 105.4 84.8 105.2 84.8zM99.8 83.9c-.5 0-.9-.1-1.4-.1l0 0L99.8 83.9zM108.9 87c0 0 0 .1.1.1C108.9 87 108.9 87 108.9 87zM106.6 85.2c.3.1.5.2.7.3C107.1 85.4 106.8 85.3 106.6 85.2zM109.1 87.5c.1.7-.9 1.6-2.6 2.6-2.8 1.5-5.5 3.2-8.1 4.8C105.3 92.3 109.4 89.6 109.1 87.5zM107.5 85.7c.1 0 .2.1.2.1C107.6 85.7 107.6 85.7 107.5 85.7zM108 85.9c.1 0 .1.1.2.1C108.1 86 108 86 108 85.9zM108.7 86.6c0 0 .1.1.1.1C108.7 86.7 108.7 86.6 108.7 86.6zM108.4 86.3c.1 0 .1.1.1.1C108.4 86.4 108.4 86.3 108.4 86.3z"/><g><path fill="#454B54" d="M46.2,106.7C46.2,106.7,46.2,106.7,46.2,106.7c-16.2,0-18.7-3.6-19.1-6.4c-0.7-4.4,4.7-7.3,9-9.2L36,47.6c0-13.1,9.3-24,22.3-26.1c1.4-0.2,2.7-0.3,4.1-0.3c11.5,0,21.6,7.4,25.1,18.3L100.6,81c4.8,0.5,10.7,1.7,11.4,6c1.6,10.3-33.7,16.4-40.8,17.5C62.2,105.9,53.5,106.7,46.2,106.7z M33.6,99.3c1.6,0.6,5.3,1.4,12.5,1.4c7,0,15.4-0.7,24.1-2.1c20.4-3.2,32.2-8.1,35.2-10.5c-0.9-0.4-2.7-0.9-6-1.2l-1.3-0.1c-1.2-0.1-2.3-0.9-2.7-2.1L81.7,41.4C79,32.9,71.2,27.2,62.3,27.2c-1.1,0-2.1,0.1-3.2,0.2C49.2,29,42,37.5,42,47.6l0.1,45.5c0,1.2-0.7,2.3-1.9,2.8l-1.3,0.5C35.9,97.7,34.4,98.7,33.6,99.3z"/></g><g><path fill="#454B54" d="M109.1,90.5c-1.3,0-2.5-0.8-2.9-2.1c-2.2-1.6-15.2-3.1-37.4,0.3c-1.6,0.3-3.2-0.9-3.4-2.5c-0.3-1.6,0.9-3.2,2.5-3.4c7.1-1.1,42.6-6.1,44.2,4.2c0.3,1.6-0.9,3.2-2.5,3.4C109.4,90.4,109.2,90.5,109.1,90.5z"/></g><g><path fill="#454B54" d="M55.4,91.2c-0.8,0-1.6-0.3-2.1-0.9c-0.6-0.6-0.9-1.3-0.9-2.1c0-0.8,0.3-1.6,0.9-2.1c1.1-1.1,3.1-1.1,4.2,0c0.6,0.6,0.9,1.3,0.9,2.1c0,0.8-0.3,1.5-0.9,2.1C56.9,90.9,56.1,91.2,55.4,91.2z"/></g><g><path fill="#454B54" d="M58.7,27.5c-1.5,0-2.7-1.1-3-2.5l-1.5-9.9c-0.3-1.6,0.9-3.2,2.5-3.4c1.6-0.3,3.2,0.9,3.4,2.5l1.5,9.9c0.3,1.6-0.9,3.2-2.5,3.4C59,27.5,58.9,27.5,58.7,27.5z"/></g><g><path fill="#454B54" d="M39.1,96.1c-1.2,0-2.4-0.8-2.8-2c-0.6-1.6,0.2-3.3,1.8-3.8l4.5-1.6c1.6-0.6,3.3,0.2,3.8,1.8s-0.2,3.3-1.8,3.8l-4.5,1.6C39.8,96,39.4,96.1,39.1,96.1z"/></g></svg>