<svg xmlns="http://www.w3.org/2000/svg" id="Layer_1" x="0" y="0" version="1.1" viewBox="0 0 128 128" xml:space="preserve"><path fill="#fff" d="M109,124H19c-5.5,0-10-4.5-10-10V54c0-5.5,4.5-10,10-10h90c5.5,0,10,4.5,10,10v60C119,119.5,114.5,124,109,124 z"/><path fill="#444b54" d="M109,127H19c-7.2,0-13-5.8-13-13V54c0-7.2,5.8-13,13-13h90c7.2,0,13,5.8,13,13v60C122,121.2,116.2,127,109,127 z M19,47c-3.9,0-7,3.1-7,7v60c0,3.9,3.1,7,7,7h90c3.9,0,7-3.1,7-7V54c0-3.9-3.1-7-7-7H19z"/><path fill="#444b54" d="M84,47c-1.7,0-3-1.3-3-3c0-8.8-7.2-16-16-16h-2c-5.1,0-9.7,2.3-12.8,6.4c-1,1.3-2.9,1.6-4.2,0.6 c-1.3-1-1.6-2.9-0.6-4.2C49.6,25.2,56,22,63,22h2c12.1,0,22,9.9,22,22C87,45.7,85.7,47,84,47z"/><path fill="#f46e67" d="M82,77H71V66c0-1.7-1.3-3-3-3h-8c-1.7,0-3,1.3-3,3v11H46c-1.7,0-3,1.3-3,3v8c0,1.7,1.3,3,3,3h11v11 c0,1.7,1.3,3,3,3h8c1.7,0,3-1.3,3-3V91h11c1.7,0,3-1.3,3-3v-8C85,78.3,83.7,77,82,77z"/></svg>