<svg xmlns="http://www.w3.org/2000/svg" viewBox="0 0 128 128"><path fill="#F48884" d="M80.5,49h-28c-11.2,0-20.9,6.1-26,15.1c-1.7,3.1-5.1,4.9-8.6,4.9h-3.4v20h3.4c3.5,0,6.8,1.8,8.6,4.9c5.2,9,14.9,15.1,26,15.1h28c16.6,0,30-13.4,30-30v0C110.5,62.4,97,49,80.5,49z"/><path fill="#454B54" d="M80.5,112h-28c-11.8,0-22.8-6.4-28.7-16.6c-1.2-2.1-3.5-3.4-6-3.4h-3.4c-1.7,0-3-1.3-3-3V69c0-1.7,1.3-3,3-3h3.4c2.5,0,4.8-1.3,6-3.4C29.7,52.4,40.6,46,52.5,46h28c18.2,0,33,14.8,33,33S98.6,112,80.5,112z M17.5,86h0.4c4.6,0,8.9,2.4,11.2,6.4c4.8,8.4,13.8,13.6,23.4,13.6h28c14.9,0,27-12.1,27-27s-12.1-27-27-27h-28c-9.7,0-18.6,5.2-23.4,13.6c-2.3,3.9-6.5,6.4-11.2,6.4h-0.4V86z"/><path fill="#454B54" d="M35.8,72c-0.8,0-1.6-0.3-2.1-0.9c-0.6-0.6-0.9-1.3-0.9-2.1s0.3-1.6,0.9-2.1c1.1-1.1,3.1-1.1,4.2,0c0.6,0.6,0.9,1.3,0.9,2.1s-0.3,1.6-0.9,2.1C37.4,71.7,36.6,72,35.8,72z"/><path fill="#F48884" d="M61.5 101L61.5 101c-2.2 0-1 1.8-1 4l-3 13c0 1.7-1.3 3-3 3h-7c-1.7 0-3-1.3-3-3v-13M72.5 105l4 13c0 1.7 1.3 3 3 3h7c1.7 0 3-1.3 3-3v-13"/><path fill="#454B54" d="M86.5 124h-7c-3.1 0-5.7-2.4-6-5.4l-2.9-8.6c-.5-1.6.3-3.3 1.9-3.8 1.6-.5 3.3.3 3.8 1.9l3 9c.1.3.2.6.2.9h7v-10.4c0-1.7 1.3-3 3-3s3 1.3 3 3V118C92.5 121.3 89.8 124 86.5 124zM54.5 124h-7c-3.3 0-6-2.7-6-6v-10.1c0-1.7 1.3-3 3-3s3 1.3 3 3V118h7c0-.2 0-.5.1-.7l3-13c.4-1.6 2-2.6 3.6-2.2 1.6.4 2.6 2 2.2 3.6l-2.9 12.7C60.2 121.5 57.6 124 54.5 124z"/><path fill="#F48884" d="M34.5,42L34.5,42c8.3,0,15,3.7,15,12v5h-15V42z"/><path fill="#454B54" d="M34.5 62c-1.7 0-3-1.3-3-3V42c0-1.7 1.3-3 3-3 10.9 0 18 5.9 18 15 0 1.7-1.3 3-3 3s-3-1.3-3-3c0-6.3-5.1-8.2-9-8.8V59C37.5 60.7 36.1 62 34.5 62zM115.5 82h-5.1c-1.7 0-3-1.3-3-3s1.3-3 3-3h5.1c1.7 0 3 1.3 3 3S117.2 82 115.5 82z"/><path fill="#F8E390" d="M87.5 24.5A23.6 24.5 0 1 0 87.5 73.5A23.6 24.5 0 1 0 87.5 24.5Z"/><path fill="#454B54" d="M87.5,76.5c-14.7,0-26.6-12.3-26.6-27.5s11.9-27.5,26.6-27.5c14.7,0,26.6,12.3,26.6,27.5S102.1,76.5,87.5,76.5z M87.5,27.5c-11.4,0-20.6,9.6-20.6,21.5s9.2,21.5,20.6,21.5c11.4,0,20.6-9.6,20.6-21.5S98.8,27.5,87.5,27.5z"/><path fill="#FFF" d="M87.5 34.3A14.2 14.7 0 1 0 87.5 63.7A14.2 14.7 0 1 0 87.5 34.3Z"/><path fill="#F48884" d="M60.5,61h18c11,0,20,9,20,20L82,82.5C69.4,83.7,60.5,73.7,60.5,61L60.5,61z"/></svg>