<svg xmlns="http://www.w3.org/2000/svg" viewBox="0 0 128 128"><path fill="#fff" d="M33,22.6L33,22.6c-1.9-2.7-1.4-6.9,1-8.9C40.9,8,49.1,5,58,5c8.6,0,16.7,2.8,23.5,8.3c2.4,1.9,2.9,6.1,1.1,8.9l0,0c-1.5,2.3-4.2,2.9-6.2,1.3C71.1,19.2,64.8,17,58,17c-7,0-13.4,2.3-18.8,6.8C37.2,25.4,34.5,24.9,33,22.6z"/><path fill="#444b54" d="M86.7,19.5c0.4-3.3-0.8-6.6-3.3-8.6C76,5.1,67.2,2,58,2c-9.5,0-18.5,3.2-25.9,9.4c-2.5,2-3.6,5.4-3.2,8.6C20.1,29.2,15,43.4,15,61c0,1.7,1.3,3,3,3s3-1.3,3-3c0-14.8,3.9-26.9,10.9-35.2c1.1,1,2.4,1.6,3.8,1.8c0.3,0,0.6,0.1,1,0.1c1.6,0,3.2-0.6,4.5-1.6C46,22,51.7,20,58,20c6.1,0,11.7,1.9,16.5,5.8c1.6,1.3,3.5,1.8,5.4,1.5c1.4-0.2,2.7-0.9,3.8-1.8C90.9,33.6,95,45.9,95,61c0,1.7,1.3,3,3,3s3-1.3,3-3C101,43.1,95.8,28.8,86.7,19.5z M80.1,20.5c-0.3,0.5-0.7,0.8-1.1,0.8c-0.3,0-0.5,0-0.8-0.3C72.4,16.4,65.4,14,58,14c-7.6,0-14.8,2.6-20.7,7.4c-0.3,0.2-0.5,0.3-0.8,0.3c-0.4-0.1-0.8-0.3-1.1-0.8c-1-1.4-0.8-3.9,0.4-4.9c6.5-5.3,13.9-8,22.1-8c8,0,15.3,2.6,21.6,7.6C80.9,16.6,81.1,19,80.1,20.5z"/><path fill="#fff" d="M54,123h-4c-3.3,0-6-2.7-6-6v0c0-3.3,2.7-6,6-6h4c3.3,0,6,2.7,6,6v0C60,120.3,57.3,123,54,123z"/><path fill="#444b54" d="M94,107c-1.7,0-3,1.3-3,3c0,2.2-1.8,4-4,4H62.5c-1.2-3.5-4.6-6-8.5-6h-4c-5,0-9,4-9,9s4,9,9,9h4c3.9,0,7.2-2.5,8.5-6H87c5.5,0,10-4.5,10-10C97,108.3,95.7,107,94,107z M54,120h-4c-1.7,0-3-1.3-3-3s1.3-3,3-3h4c1.7,0,3,1.3,3,3S55.7,120,54,120z"/><path fill="#fff" d="M29,98c-3.8,0-8-5.3-8-13s4.2-13,8-13s8,5.3,8,13S32.8,98,29,98z"/><path fill="#444b54" d="M29,101c-6,0-11-7.3-11-16s5-16,11-16s11,7.3,11,16S35,101,29,101z M29,75c-1.8,0-5,3.8-5,10s3.2,10,5,10s5-3.8,5-10S30.8,75,29,75z"/><path fill="#444b54" d="M29,63c-4.5,0-8.6,2.3-11.7,6.1C11.7,69.6,7,76.7,7,85s4.7,15.4,10.3,15.9c3,3.7,7.2,6.1,11.7,6.1c9.4,0,17-9.9,17-22S38.4,63,29,63z M29,95c-1.8,0-5-3.8-5-10s3.2-10,5-10s5,3.8,5,10S30.8,95,29,95z"/><path fill="#fff" d="M87 66A14 19 0 1 0 87 104A14 19 0 1 0 87 66Z"/><path fill="#444b54" d="M87,107c-9.4,0-17-9.9-17-22s7.6-22,17-22s17,9.9,17,22S96.4,107,87,107z M87,69c-6,0-11,7.3-11,16s5,16,11,16s11-7.3,11-16S93,69,87,69z"/><g><path fill="#444b54" d="M87,107c-9.4,0-17-9.9-17-22s7.6-22,17-22s17,9.9,17,22S96.4,107,87,107z M87,69c-6,0-11,7.3-11,16s5,16,11,16s11-7.3,11-16S93,69,87,69z"/></g><path fill="#444b54" d="M98,69c-6,0-11,7.3-11,16s5,16,11,16s11-7.3,11-16S104,69,98,69z"/></svg>